<svg width="24" height="24" viewBox="0 0 24 24" fill="none" xmlns="http://www.w3.org/2000/svg">
<path d="M16.9497 8.46447L13.4142 12L16.9497 15.5355C16.9497 15.5355 17.6568 16.2426 16.9497 16.9497C16.2426 17.6569 15.5355 16.9497 15.5355 16.9497L12 13.4142L8.46442 16.9497C8.46442 16.9497 7.75732 17.6569 7.05021 16.9497C6.3431 16.2426 7.05021 15.5355 7.05021 15.5355L10.5857 12L7.05021 8.46447C7.05021 8.46447 6.3431 7.75736 7.05021 7.05025C7.75732 6.34315 8.46442 7.05025 8.46442 7.05025L12 10.5858L15.5355 7.05025C15.5355 7.05025 16.2426 6.34315 16.9497 7.05025C17.6568 7.75736 16.9497 8.46447 16.9497 8.46447Z" fill="#164BA7"/>
</svg>
