<svg width="24" height="24" viewBox="0 0 24 24" fill="none" xmlns="http://www.w3.org/2000/svg">
<path d="M11.4309 8.15246L12 8.81557L12.5691 8.15246C13.3039 7.29634 14.4347 6.75 15.6 6.75C17.6507 6.75 19.25 8.34311 19.25 10.4C19.25 11.6614 18.6878 12.8684 17.5443 14.2674C16.3926 15.6764 14.7309 17.187 12.6562 19.0684L12.6551 19.0694L12 19.6658L11.3449 19.0694L11.3438 19.0684C9.26906 17.187 7.60742 15.6764 6.4557 14.2674C5.31222 12.8684 4.75 11.6614 4.75 10.4C4.75 8.34311 6.34932 6.75 8.4 6.75C9.56527 6.75 10.6961 7.29634 11.4309 8.15246Z" stroke="#989898" stroke-width="1.5"/>
</svg>
