<svg width="24" height="24" viewBox="0 0 24 24" fill="none" xmlns="http://www.w3.org/2000/svg">
<path d="M18 15.0001C18.7956 15.0001 19.5587 15.3161 20.1213 15.8787C20.6839 16.4414 21 17.2044 21 18.0001C21 18.7957 20.6839 19.5588 20.1213 20.1214C19.5587 20.684 18.7956 21.0001 18 21.0001C16.69 21.0001 15.58 20.1701 15.17 19.0001H14V17.0001H15.17C15.58 15.8301 16.69 15.0001 18 15.0001ZM18 17.0001C17.7348 17.0001 17.4804 17.1054 17.2929 17.293C17.1054 17.4805 17 17.7349 17 18.0001C17 18.2653 17.1054 18.5196 17.2929 18.7072C17.4804 18.8947 17.7348 19.0001 18 19.0001C18.2652 19.0001 18.5196 18.8947 18.7071 18.7072C18.8946 18.5196 19 18.2653 19 18.0001C19 17.7349 18.8946 17.4805 18.7071 17.293C18.5196 17.1054 18.2652 17.0001 18 17.0001ZM18 8.00007C18.3793 8.00007 18.743 7.84941 19.0112 7.58123C19.2793 7.31305 19.43 6.94933 19.43 6.57007C19.43 5.78007 18.79 5.14007 18 5.14007C17.21 5.14007 16.57 5.78007 16.57 6.57007C16.57 6.94933 16.7207 7.31305 16.9888 7.58123C17.257 7.84941 17.6207 8.00007 18 8.00007ZM18 2.57007C19.0609 2.57007 20.0783 2.9915 20.8284 3.74164C21.5786 4.49179 22 5.5092 22 6.57007C22 9.56007 18 14.0001 18 14.0001C18 14.0001 14 9.56007 14 6.57007C14 5.5092 14.4214 4.49179 15.1716 3.74164C15.9217 2.9915 16.9391 2.57007 18 2.57007ZM8.83 17.0001H10V19.0001H8.83C8.42 20.1701 7.31 21.0001 6 21.0001C5.20435 21.0001 4.44129 20.684 3.87868 20.1214C3.31607 19.5588 3 18.7957 3 18.0001C3 16.6901 3.83 15.5801 5 15.1701V14.0001H7V15.1701C7.85 15.4701 8.53 16.1501 8.83 17.0001ZM6 17.0001C5.73478 17.0001 5.48043 17.1054 5.29289 17.293C5.10536 17.4805 5 17.7349 5 18.0001C5 18.2653 5.10536 18.5196 5.29289 18.7072C5.48043 18.8947 5.73478 19.0001 6 19.0001C6.26522 19.0001 6.51957 18.8947 6.70711 18.7072C6.89464 18.5196 7 18.2653 7 18.0001C7 17.7349 6.89464 17.4805 6.70711 17.293C6.51957 17.1054 6.26522 17.0001 6 17.0001ZM6 3.00007C6.79565 3.00007 7.55871 3.31614 8.12132 3.87875C8.68393 4.44136 9 5.20442 9 6.00007C9 7.31007 8.17 8.42007 7 8.83007V10.0001H5V8.83007C3.83 8.42007 3 7.31007 3 6.00007C3 5.20442 3.31607 4.44136 3.87868 3.87875C4.44129 3.31614 5.20435 3.00007 6 3.00007ZM6 5.00007C5.73478 5.00007 5.48043 5.10543 5.29289 5.29296C5.10536 5.4805 5 5.73485 5 6.00007C5 6.26528 5.10536 6.51964 5.29289 6.70718C5.48043 6.89471 5.73478 7.00007 6 7.00007C6.26522 7.00007 6.51957 6.89471 6.70711 6.70718C6.89464 6.51964 7 6.26528 7 6.00007C7 5.73485 6.89464 5.4805 6.70711 5.29296C6.51957 5.10543 6.26522 5.00007 6 5.00007ZM11 19.0001V17.0001H13V19.0001H11ZM7 13.0001H5V11.0001H7V13.0001Z" fill="#164BA7"/>
</svg>
