<svg width="84" height="84" viewBox="0 0 84 84" fill="none" xmlns="http://www.w3.org/2000/svg">
<path fill-rule="evenodd" clip-rule="evenodd" d="M42 0.75C64.091 0.75 82 18.659 82 40.75C82 62.841 64.091 80.75 42 80.75C19.909 80.75 2 62.841 2 40.75C2 18.659 19.909 0.75 42 0.75Z" fill="#3560AB"/>
<path fill-rule="evenodd" clip-rule="evenodd" d="M76.563 60.868L42.087 80.772L7.612 60.868V21.059L42.087 1.15503L76.563 21.059V60.868Z" stroke="#F8F8F8" stroke-width="1.5"/>
<path fill-rule="evenodd" clip-rule="evenodd" d="M14.371 22.4019L13.629 21.0979L45.629 3.0979L46.371 4.4019L14.371 22.4019Z" fill="white"/>
<path fill-rule="evenodd" clip-rule="evenodd" d="M44.371 75.4019L43.629 74.0979L69.629 59.0979L70.371 60.4019L44.371 75.4019Z" fill="white"/>
<path fill-rule="evenodd" clip-rule="evenodd" d="M53.3 50.0499H51.006C50.603 45.761 46.972 42.3899 42.5 42.3899C38.028 42.3899 34.397 45.761 33.994 50.0499H31.7C32 45.951 34.663 42.5009 38.355 40.9939C36.59 39.7309 35.431 37.701 35.431 35.393C35.431 31.558 38.596 28.45 42.5 28.45C46.404 28.45 49.569 31.558 49.569 35.393C49.569 37.701 48.41 39.7309 46.645 40.9939C50.337 42.5009 53 45.951 53.3 50.0499Z" fill="white"/>
</svg>
