<svg width="84" height="84" viewBox="0 0 84 84" fill="none" xmlns="http://www.w3.org/2000/svg">
<path fill-rule="evenodd" clip-rule="evenodd" d="M42 0.75C64.091 0.75 82 18.659 82 40.75C82 62.841 64.091 80.75 42 80.75C19.909 80.75 2 62.841 2 40.75C2 18.659 19.909 0.75 42 0.75Z" fill="#3560AB"/>
<path fill-rule="evenodd" clip-rule="evenodd" d="M76.563 60.868L42.087 80.772L7.612 60.868V21.059L42.087 1.15503L76.563 21.059V60.868Z" stroke="#F8F8F8" stroke-width="1.5"/>
<path fill-rule="evenodd" clip-rule="evenodd" d="M23.371 17.4019L22.629 16.0979L45.629 3.0979L46.371 4.4019L23.371 17.4019Z" fill="white"/>
<path fill-rule="evenodd" clip-rule="evenodd" d="M52.371 70.4019L51.629 69.0979L61.629 63.0979L62.371 64.4019L52.371 70.4019Z" fill="white"/>
<path fill-rule="evenodd" clip-rule="evenodd" d="M62.261 51.6099L56.024 52.5009L55.133 58.7379L41.937 45.5419L28.741 58.7379L27.85 52.5009L21.614 51.6099L34.005 39.2189L26.912 32.5399L37.349 31.0739L42.015 21.9399L46.683 31.0739L57.121 32.5399L49.945 39.2949L62.261 51.6099ZM41.791 45.3949L41.769 45.3739L41.937 45.3849L42.106 45.3739L42.084 45.3949L43.017 45.4589L42.015 44.9499L41.038 45.4469L41.791 45.3949ZM45.283 32.4969L42.016 26.1019L38.749 32.4969L31.443 33.5229L36.73 38.4999L35.481 45.5279L42.016 42.2099L48.55 45.5279L47.302 38.4999L52.589 33.5229L45.283 32.4969Z" fill="white"/>
</svg>
