<svg width="84" height="84" viewBox="0 0 84 84" fill="none" xmlns="http://www.w3.org/2000/svg">
<path fill-rule="evenodd" clip-rule="evenodd" d="M42 0.75C64.091 0.75 82 18.659 82 40.75C82 62.841 64.091 80.75 42 80.75C19.909 80.75 2 62.841 2 40.75C2 18.659 19.909 0.75 42 0.75Z" fill="#3560AB"/>
<path fill-rule="evenodd" clip-rule="evenodd" d="M76.563 60.868L42.087 80.772L7.612 60.868V21.059L42.087 1.15503L76.563 21.059V60.868Z" stroke="#F8F8F8" stroke-width="1.5"/>
<path fill-rule="evenodd" clip-rule="evenodd" d="M19.371 21.4019L18.629 20.0979L38.629 9.0979L39.371 10.4019L19.371 21.4019Z" fill="white"/>
<path fill-rule="evenodd" clip-rule="evenodd" d="M39.371 63.4019L38.629 62.0979L64.629 47.0979L65.371 48.4019L39.371 63.4019Z" fill="white"/>
<path fill-rule="evenodd" clip-rule="evenodd" d="M53 47.056C53 52.962 48.299 57.75 42.5 57.75C36.701 57.75 32 52.962 32 47.056C32 42.523 34.773 38.658 38.682 37.101V29.114C38.105 28.67 37.727 27.973 37.727 27.181C37.727 25.838 38.796 24.75 40.114 24.75H43.932C45.25 24.75 46.318 25.838 46.318 27.181C46.318 27.973 45.94 28.67 45.364 29.114V36.774C49.769 38.045 53 42.162 53 47.056Z" fill="white"/>
<path fill-rule="evenodd" clip-rule="evenodd" d="M37.5 41.75C38.881 41.75 40 42.869 40 44.25C40 45.631 38.881 46.75 37.5 46.75C36.119 46.75 35 45.631 35 44.25C35 42.869 36.119 41.75 37.5 41.75Z" fill="#3560AB"/>
<path fill-rule="evenodd" clip-rule="evenodd" d="M51 47.25C51 51.944 47.194 55.75 42.5 55.75C37.806 55.75 34 51.944 34 47.25C43 52.576 44 37.576 51 47.25Z" fill="#3560AB"/>
</svg>