<svg width="84" height="84" viewBox="0 0 84 84" fill="none" xmlns="http://www.w3.org/2000/svg">
<path fill-rule="evenodd" clip-rule="evenodd" d="M42 0.75C64.091 0.75 82 18.659 82 40.75C82 62.841 64.091 80.75 42 80.75C19.909 80.75 2 62.841 2 40.75C2 18.659 19.909 0.75 42 0.75Z" fill="#3560AB"/>
<path fill-rule="evenodd" clip-rule="evenodd" d="M76.563 60.868L42.087 80.772L7.612 60.868V21.059L42.087 1.15503L76.563 21.059V60.868Z" stroke="#F8F8F8" stroke-width="1.5"/>
<path fill-rule="evenodd" clip-rule="evenodd" d="M9.371 26.4019L8.629 25.0979L28.629 14.0979L29.371 15.4019L9.371 26.4019Z" fill="white"/>
<path fill-rule="evenodd" clip-rule="evenodd" d="M39.371 66.4019L38.629 65.0979L64.629 50.0979L65.371 51.4019L39.371 66.4019Z" fill="white"/>
<path fill-rule="evenodd" clip-rule="evenodd" d="M57.865 25.155L30.792 40.498L38.54 42.49L25.635 57.345L53.881 40.651L45.358 38.46L57.865 25.155Z" fill="white"/>
</svg>