<svg width="24" height="24" viewBox="0 0 24 24" fill="none" xmlns="http://www.w3.org/2000/svg">
<path d="M19.7778 5.55556H17.5556C17.5556 2.44444 15.1111 0 12 0C8.88889 0 6.44444 2.44444 6.44444 5.55556H4.22222C3 5.55556 2 6.55556 2 7.77778V21.1111C2 22.3333 3 23.3333 4.22222 23.3333H19.7778C21 23.3333 22 22.3333 22 21.1111V7.77778C22 6.55556 21 5.55556 19.7778 5.55556ZM12 2.22222C13.8889 2.22222 15.3333 3.66667 15.3333 5.55556H8.66667C8.66667 3.66667 10.1111 2.22222 12 2.22222ZM19.7778 21.1111H4.22222V7.77778H19.7778V21.1111ZM12 12.2222C10.1111 12.2222 8.66667 10.7778 8.66667 8.88889H6.44444C6.44444 12 8.88889 14.4444 12 14.4444C15.1111 14.4444 17.5556 12 17.5556 8.88889H15.3333C15.3333 10.7778 13.8889 12.2222 12 12.2222Z" fill="#003A7C"/>
</svg>
