<svg width="24" height="24" viewBox="0 0 24 24" fill="none" xmlns="http://www.w3.org/2000/svg">
<path fill-rule="evenodd" clip-rule="evenodd" d="M0 7.5C0 6.67157 0.671573 6 1.5 6H22.5C23.3284 6 24 6.67157 24 7.5C24 8.32843 23.3284 9 22.5 9H1.5C0.671573 9 0 8.32843 0 7.5ZM0 12.5C0 11.6716 0.671573 11 1.5 11H22.5C23.3284 11 24 11.6716 24 12.5C24 13.3284 23.3284 14 22.5 14H1.5C0.671573 14 0 13.3284 0 12.5ZM13.5 16C12.6716 16 12 16.6716 12 17.5C12 18.3284 12.6716 19 13.5 19H22.5C23.3284 19 24 18.3284 24 17.5C24 16.6716 23.3284 16 22.5 16H13.5Z" fill="#003A7C"/>
</svg>
