<svg width="24" height="24" viewBox="0 0 24 24" fill="none" xmlns="http://www.w3.org/2000/svg">
<circle cx="12" cy="12" r="9" stroke="#E46E28" stroke-width="2"/>
<path d="M7.86356 7.33679C8.09186 7.06518 8.35987 7 8.51868 7C8.68743 7 8.84624 7.01086 8.98521 7.01086C9.14402 7.02173 9.34254 6.95654 9.54106 7.47802C9.74951 8.01036 10.2458 9.3575 10.3054 9.477C10.3649 9.60737 10.4046 9.75947 10.3252 9.94416C10.2458 10.118 10.2061 10.2375 10.0771 10.3896C9.97781 10.5525 9.81899 10.7481 9.70981 10.8676C9.59069 10.9871 9.48151 11.1501 9.60062 11.4108C9.74951 11.6824 10.2359 12.5624 10.9704 13.2794C11.9035 14.192 12.6975 14.4745 12.9556 14.6157C13.1938 14.7461 13.3328 14.7243 13.4817 14.5396C13.6207 14.3658 14.0971 13.7574 14.2559 13.4858C14.4445 13.2251 14.5835 13.2686 14.8118 13.3555C15.0302 13.4424 16.2411 14.0942 16.4893 14.2463C16.7374 14.3658 16.8963 14.431 16.9657 14.5396C17.0253 14.6592 17.0253 15.1915 16.8168 15.8216C16.6084 16.4517 15.6356 17.0275 15.1592 17.1036C14.7324 17.1687 14.1964 17.2013 13.6107 16.9949C13.2534 16.8754 12.7968 16.7125 12.2112 16.4191C9.73958 15.2675 8.13157 12.5515 7.9926 12.3668C7.88342 12.1821 7 10.9111 7 9.58564C7 8.27109 7.64519 7.60839 7.86356 7.33679Z" fill="#E46E28"/>
</svg>
