<svg width="24" height="24" viewBox="0 0 24 24" fill="none" xmlns="http://www.w3.org/2000/svg">
<path fill-rule="evenodd" clip-rule="evenodd" d="M18.8813 12.229C18.9216 12.229 18.9602 12.224 19 12.2229V12.2352C18.9602 12.2346 18.9216 12.229 18.8813 12.229ZM11.9978 19H11.9866C11.9266 15.2508 8.87016 12.229 5.10248 12.229C8.90768 12.229 11.9922 9.1412 11.9922 5.33208C11.9922 9.1412 15.0766 12.229 18.8813 12.229C15.1142 12.229 12.0577 15.2508 11.9978 19ZM5 12.224C5.03472 12.2246 5.06776 12.229 5.10248 12.229C5.06776 12.229 5.03472 12.2335 5 12.2341V12.224ZM12.009 5C12.0034 5.11088 11.9922 5.21952 11.9922 5.33208C11.9922 5.21952 11.9804 5.11088 11.9754 5H12.009Z" fill="#E46E28"/>
</svg>
