<svg xmlns="http://www.w3.org/2000/svg" viewBox="0 0 528.3 170.8"><path d="M909.8,1100.7H791a12.1,12.1,0,0,1-9.1-4.1,11.9,11.9,0,0,1-2.8-9.4L785.6,984a21.9,21.9,0,0,1,21.6-18.8h86.4A21.8,21.8,0,0,1,915.1,984v.3l6.5,102.9a12.3,12.3,0,0,1-2.8,9.4A12.1,12.1,0,0,1,909.8,1100.7ZM792.6,984.9,786,1088a4.8,4.8,0,0,0,1.2,4,5,5,0,0,0,3.8,1.7H909.8a5,5,0,0,0,3.8-1.7,5.2,5.2,0,0,0,1.2-4v-.2l-6.6-102.9a14.8,14.8,0,0,0-14.6-12.7H807.2A14.8,14.8,0,0,0,792.6,984.9Z" transform="translate(-570 -929.9)" style="fill:#cdcccc"/><path d="M880.5,986.8a3.5,3.5,0,0,1-3.5-3.5V963.5a26.6,26.6,0,0,0-53.2,0v19.8a3.5,3.5,0,0,1-3.5,3.5,3.5,3.5,0,0,1-3.5-3.5V963.5a33.6,33.6,0,0,1,67.2,0v19.8A3.5,3.5,0,0,1,880.5,986.8Z" transform="translate(-570 -929.9)" style="fill:#cdcccc"/><path d="M867.6,1063.3c1,3.8-33.3,13.2-34.3,9.4s5.8-8.9,15.3-11.5S866.5,1059.6,867.6,1063.3Z" transform="translate(-570 -929.9)" style="fill:#cdcccc"/><circle cx="305.4" cy="97.2" r="4.6" style="fill:#cdcccc"/><circle cx="255.4" cy="97.2" r="4.6" style="fill:#cdcccc"/><path d="M570,1078h0a2.1,2.1,0,0,0,2.6,2.1A1479.8,1479.8,0,0,1,769,1055.4a2.3,2.3,0,0,0,2.2-2.2v-.3a2.4,2.4,0,0,0-2.5-2.5A1481.8,1481.8,0,0,0,572.5,1075,3.1,3.1,0,0,0,570,1078Z" transform="translate(-570 -929.9)" style="fill:#cdcccc"/><path d="M1046,1064.3c-39.7-6-83.5-11-130-13.7v5c46.5,2.8,90.3,7.8,130,13.8a2.2,2.2,0,0,0,2.5-2.2A3,3,0,0,0,1046,1064.3Z" transform="translate(-570 -929.9)" style="fill:#cdcccc"/><path d="M1096.3,1072.8l-17.2-3.1a2.7,2.7,0,0,0-3,1.8,2.6,2.6,0,0,0,2,3.1l17.3,3.1a2.5,2.5,0,0,0,2.9-2.5h0A2.4,2.4,0,0,0,1096.3,1072.8Z" transform="translate(-570 -929.9)" style="fill:#cdcccc"/></svg>