<svg xmlns="http://www.w3.org/2000/svg" viewBox="0 0 142.9 170.8"><path d="M909.8,1100.7H791a12.1,12.1,0,0,1-9.1-4.1,11.9,11.9,0,0,1-2.8-9.4L785.6,984a21.9,21.9,0,0,1,21.6-18.8h86.4A21.8,21.8,0,0,1,915.1,984v.3l6.5,102.9a12.3,12.3,0,0,1-2.8,9.4A12.1,12.1,0,0,1,909.8,1100.7ZM792.6,984.9,786,1088a4.8,4.8,0,0,0,1.2,4,5,5,0,0,0,3.8,1.7H909.8a5,5,0,0,0,3.8-1.7,5.2,5.2,0,0,0,1.2-4v-.2l-6.6-102.9a14.8,14.8,0,0,0-14.6-12.7H807.2A14.8,14.8,0,0,0,792.6,984.9Z" transform="translate(-779 -929.9)" style="fill:#cdcccc"/><path d="M880.5,986.8a3.5,3.5,0,0,1-3.5-3.5V963.5a26.6,26.6,0,0,0-53.2,0v19.8a3.5,3.5,0,0,1-3.5,3.5,3.5,3.5,0,0,1-3.5-3.5V963.5a33.6,33.6,0,0,1,67.2,0v19.8A3.5,3.5,0,0,1,880.5,986.8Z" transform="translate(-779 -929.9)" style="fill:#cdcccc"/><path d="M867.6,1063.3c1,3.8-33.3,13.2-34.3,9.4s5.8-8.9,15.3-11.5S866.5,1059.6,867.6,1063.3Z" transform="translate(-779 -929.9)" style="fill:#cdcccc"/><circle cx="96.4" cy="97.2" r="4.6" style="fill:#cdcccc"/><circle cx="46.4" cy="97.2" r="4.6" style="fill:#cdcccc"/></svg>