<svg width="160" height="30" viewBox="0 0 160 30" fill="none" xmlns="http://www.w3.org/2000/svg">
<g clip-path="url(#clip0_403_1466)">
<path d="M87.9001 13.1174H80.2663V8.13763C80.2663 6.68014 80.2042 5.76921 80.018 5.40484C79.9191 5.22014 79.7654 5.06907 79.5771 4.97151C79.3887 4.87395 79.1746 4.83447 78.9629 4.85828C78.3423 4.85828 77.9078 5.04047 77.7216 5.5263C77.5247 6.46488 77.4414 7.4229 77.4734 8.38055V21.7409C77.443 22.6583 77.5263 23.5759 77.7216 24.4737C77.8154 24.6967 77.9818 24.8831 78.1951 25.004C78.4084 25.1248 78.6565 25.1732 78.9008 25.1417C79.1352 25.1595 79.3693 25.1045 79.5699 24.9846C79.7705 24.8646 79.9273 24.6859 80.018 24.4737C80.2511 23.4787 80.3347 22.4558 80.2663 21.4372V17.8542H87.9001V18.9473C87.9001 21.9231 87.7139 24.0486 87.2794 25.3239C86.724 26.6955 85.7201 27.8486 84.4245 28.6032C82.7776 29.5696 80.8824 30.0543 78.9629 30C77.0457 30.0659 75.1434 29.6476 73.4393 28.7854C72.0671 28.1063 71.0204 26.9295 70.5223 25.5061C69.9958 23.4214 69.766 21.2757 69.8396 19.1295V10.749C69.8167 9.18814 69.8789 7.62722 70.0258 6.07286C70.2316 4.90362 70.7385 3.80497 71.4986 2.88057C72.2588 1.95617 73.247 1.2365 74.3702 0.789458C75.766 0.226062 77.2675 -0.0429506 78.7767 -1.68207e-05C80.7215 -0.069375 82.6499 0.370906 84.3625 1.27529C85.6725 1.9562 86.6865 3.07785 87.2174 4.43318C87.7139 5.70849 87.9001 7.71253 87.9001 10.3846V13.1174Z" fill="#164BA7"/>
<path d="M97.3267 0.60733V23.6235H101.981V29.3928H89.6929V0.60733H97.3267Z" fill="#164BA7"/>
<path d="M103.843 0.60733H116.628V6.31583H111.477V11.7814H116.256V17.3077H111.477V23.6235H117.125V29.3928H103.843V0.60733Z" fill="#164BA7"/>
<path d="M132.517 0.60733L136.923 29.3928H129.103L128.669 24.2308H125.938L125.504 29.3928H117.559L121.469 0.60733H132.517ZM128.483 19.1296C128.11 15.8502 127.738 11.7814 127.303 6.98385C126.559 12.5102 126.062 16.579 125.876 19.1296H128.483Z" fill="#164BA7"/>
<path d="M155.294 0.60733V29.3928H148.591L144.619 16.2753V29.3928H138.227V0.60733H144.619L148.902 13.5426V0.60733H155.294Z" fill="#164BA7"/>
<path d="M17.5019 0.6073V19.8583C17.5336 21.3788 17.4714 22.8998 17.3157 24.413C17.0777 25.4922 16.5747 26.4985 15.8502 27.3449C15.1257 28.1914 14.2015 28.8525 13.1575 29.2713C11.857 29.7844 10.4631 30.0324 9.06128 30C7.46675 30.0292 5.8829 29.7399 4.40651 29.1498C3.21081 28.6716 2.16281 27.8972 1.3654 26.9028C0.728299 26.0663 0.322184 25.0833 0.186193 24.0486C0.0620655 23.0162 0 20.8907 0 17.6114V0.6073H7.63382V22.166C7.60009 22.9831 7.68366 23.8008 7.88207 24.5952C7.93645 24.7604 8.04496 24.9035 8.19081 25.0023C8.33666 25.1011 8.51172 25.1501 8.6889 25.1417C8.89721 25.1478 9.10269 25.0933 9.27941 24.9852C9.45614 24.8772 9.59619 24.7203 9.68191 24.5344C9.85235 23.6337 9.91483 22.7166 9.86811 21.8016V0.6073H17.5019Z" fill="#164BA7"/>
<path d="M37.5484 0.6073V29.3927H30.8456L26.8735 16.2753V29.3927H20.481V0.6073H26.8735L31.1559 13.5425V0.6073H37.5484Z" fill="#164BA7"/>
<path d="M48.2854 0.6073V29.3927H40.6516V0.6073H48.2854Z" fill="#164BA7"/>
<path d="M66.7803 0.6073V6.3158H62.2497V29.3927H54.6158V6.3158H50.0852V0.6073H66.7803Z" fill="#164BA7"/>
</g>
<defs>
<clipPath id="clip0_403_1466">
<rect width="160" height="30" fill="white"/>
</clipPath>
</defs>
</svg>
