<svg width="160" height="30" viewBox="0 0 160 30" fill="none" xmlns="http://www.w3.org/2000/svg">
<path d="M87.9001 13.1174H80.2663V8.13767C80.2663 6.68018 80.2042 5.76924 80.018 5.40487C79.9191 5.22017 79.7654 5.0691 79.5771 4.97154C79.3887 4.87398 79.1746 4.8345 78.9629 4.85831C78.3423 4.85831 77.9078 5.0405 77.7216 5.52633C77.5247 6.46491 77.4414 7.42293 77.4734 8.38058V21.7409C77.443 22.6583 77.5263 23.5759 77.7216 24.4737C77.8154 24.6967 77.9818 24.8832 78.1951 25.004C78.4084 25.1248 78.6565 25.1732 78.9008 25.1417C79.1352 25.1595 79.3693 25.1046 79.5699 24.9846C79.7705 24.8647 79.9273 24.6859 80.018 24.4737C80.2511 23.4787 80.3347 22.4558 80.2663 21.4373V17.8543H87.9001V18.9474C87.9001 21.9231 87.7139 24.0486 87.2794 25.3239C86.724 26.6955 85.7201 27.8486 84.4245 28.6033C82.7776 29.5696 80.8824 30.0543 78.9629 30C77.0457 30.066 75.1434 29.6477 73.4393 28.7854C72.0671 28.1063 71.0204 26.9296 70.5223 25.5061C69.9958 23.4215 69.766 21.2757 69.8396 19.1296V10.749C69.8167 9.18817 69.8789 7.62725 70.0258 6.07289C70.2316 4.90365 70.7385 3.805 71.4986 2.8806C72.2588 1.9562 73.247 1.23653 74.3702 0.789488C75.766 0.226093 77.2675 -0.04292 78.7767 1.36968e-05C80.7215 -0.0693445 82.6499 0.370936 84.3625 1.27532C85.6725 1.95623 86.6865 3.07788 87.2174 4.43321C87.7139 5.70852 87.9001 7.71256 87.9001 10.3846V13.1174Z" fill="#084471"/>
<path d="M97.3267 0.607422V23.6236H101.981V29.3928H89.6929V0.607422H97.3267Z" fill="#084471"/>
<path d="M103.843 0.607422H116.628V6.31592H111.477V11.7815H116.256V17.3078H111.477V23.6236H117.125V29.3928H103.843V0.607422Z" fill="#084471"/>
<path d="M132.517 0.607422L136.923 29.3928H129.103L128.669 24.2309H125.938L125.504 29.3928H117.559L121.469 0.607422H132.517ZM128.483 19.1297C128.11 15.8503 127.738 11.7815 127.303 6.98394C126.559 12.5103 126.062 16.5791 125.876 19.1297H128.483Z" fill="#084471"/>
<path d="M155.294 0.607422V29.3928H148.591L144.619 16.2754V29.3928H138.227V0.607422H144.619L148.902 13.5426V0.607422H155.294Z" fill="#084471"/>
<path d="M17.5019 0.607422V19.8584C17.5336 21.3789 17.4714 22.8999 17.3157 24.4131C17.0777 25.4923 16.5747 26.4986 15.8502 27.3451C15.1257 28.1915 14.2015 28.8526 13.1575 29.2714C11.857 29.7845 10.4631 30.0325 9.06128 30.0001C7.46675 30.0293 5.8829 29.74 4.40651 29.1499C3.21081 28.6717 2.16281 27.8973 1.3654 26.903C0.728299 26.0665 0.322184 25.0835 0.186193 24.0487C0.0620655 23.0163 0 20.8908 0 17.6115V0.607422H7.63382V22.1661C7.60009 22.9832 7.68366 23.8009 7.88207 24.5953C7.93645 24.7605 8.04496 24.9036 8.19081 25.0024C8.33666 25.1012 8.51172 25.1502 8.6889 25.1418C8.89721 25.1479 9.10269 25.0934 9.27941 24.9854C9.45614 24.8773 9.59619 24.7204 9.68191 24.5346C9.85235 23.6338 9.91483 22.7167 9.86811 21.8018V0.607422H17.5019Z" fill="#BA172F"/>
<path d="M37.5484 0.607422V29.3928H30.8456L26.8735 16.2754V29.3928H20.481V0.607422H26.8735L31.1559 13.5426V0.607422H37.5484Z" fill="#BA172F"/>
<path d="M48.2854 0.607422V29.3928H40.6516V0.607422H48.2854Z" fill="#BA172F"/>
<path d="M66.7803 0.607422V6.31592H62.2497V29.3928H54.6158V6.31592H50.0852V0.607422H66.7803Z" fill="#BA172F"/>
</svg>
